<svg baseProfile="tiny" viewBox="0 0 512 512" xml:space="preserve" xmlns="http://www.w3.org/2000/svg"><path d="M253.867 79.22s-69 128 0 189c0 0 117-88 0-189z" fill="#ffa033" class="fill-ff3333"></path><path d="M256.322 100s-53.976 100.13 0 147.848c0 0 91.525-68.839 0-147.848z" fill="#FF6633" class="fill-ff6633"></path><path fill="#ffa033" d="m207.867 116.013 3.588 7.269 8.022 1.165-5.805 5.658 1.37 7.99-7.175-3.772-7.175 3.772 1.371-7.99-5.805-5.658 8.021-1.165zM313.867 141.22l1.47 2.977 3.285.478-2.377 2.317.561 3.273-2.939-1.545-2.938 1.545.56-3.273-2.377-2.317 3.285-.478z" class="fill-ff3333"></path><path fill="#FF6633" d="m287.867 75 2.71 5.49 6.059.881-4.385 4.274 1.035 6.034-5.419-2.85-5.419 2.85 1.035-6.034-4.384-4.274 6.058-.881zM228.867 86.978l1.247 2.526 2.788.404-2.017 1.967.476 2.777-2.494-1.311-2.494 1.311.477-2.777-2.018-1.967 2.788-.404z" class="fill-ff6633"></path><path d="M256 429.22c-84.916 0-154-69.084-154-154a4 4 0 0 1 4-4h300a4 4 0 0 1 4 4c0 84.916-69.084 154-154 154z" fill="#ffa033" class="fill-ff3333"></path><path d="M406 275.22c0 82.843-67.157 150-150 150s-150-67.157-150-150h300m0-8H106a8 8 0 0 0-8 8c0 42.203 16.435 81.881 46.277 111.723 29.842 29.843 69.52 46.277 111.723 46.277s81.881-16.435 111.723-46.277C397.565 357.101 414 317.423 414 275.22a8 8 0 0 0-8-8z" fill="#660033" class="fill-660033"></path><path d="M310.519 414.999a149.866 149.866 0 0 0 38.909-22.432l-171.552 10.722a149.118 149.118 0 0 0 41.458 17.409l91.185-5.699zM385.888 350.288l-249.392 15.587a150.792 150.792 0 0 0 17.095 18.932l217.676-13.604a150.516 150.516 0 0 0 14.621-20.915zM395.806 329.668a148.928 148.928 0 0 0 6.31-20.394l-286.858 17.929a149.246 149.246 0 0 0 8.813 19.449l271.735-16.984zM109.507 308.563l295.851-18.491c.418-4.563.643-9.181.643-13.852h-99.016l-200.459 12.528a149.787 149.787 0 0 0 2.981 19.815z" fill="#CC3366" class="fill-cc3366"></path></svg>